<svg width="54" height="54" viewBox="0 0 54 54" fill="none" xmlns="http://www.w3.org/2000/svg">
<g clip-path="url(#clip0_417_1334)">
<path d="M20.25 11.25C21.4435 11.25 22.5881 11.7241 23.432 12.568C24.2759 13.4119 24.75 14.5565 24.75 15.75V29.25C24.75 36.2925 21.0375 40.9342 14.0468 42.6825C13.7593 42.7567 13.4601 42.7733 13.1663 42.7313C12.8724 42.6893 12.5898 42.5896 12.3346 42.4379C12.0795 42.2863 11.8569 42.0856 11.6796 41.8475C11.5024 41.6094 11.374 41.3386 11.3019 41.0507C11.2297 40.7627 11.2153 40.4634 11.2594 40.1698C11.3034 39.8763 11.4051 39.5944 11.5586 39.3403C11.7121 39.0863 11.9144 38.8651 12.1537 38.6896C12.3931 38.514 12.6648 38.3876 12.9532 38.3175C17.964 37.0643 20.25 34.2068 20.25 29.25V27H13.5C12.3647 27.0004 11.2712 26.5716 10.4388 25.7996C9.60631 25.0277 9.0964 23.9696 9.01125 22.8375L9 22.5L9 15.75C9 14.5565 9.47411 13.4119 10.318 12.568C11.1619 11.7241 12.3065 11.25 13.5 11.25L20.25 11.25Z" fill="#D6451B"/>
<path d="M40.5 11.25C41.6935 11.25 42.8381 11.7241 43.682 12.568C44.5259 13.4119 45 14.5565 45 15.75V29.25C45 36.2925 41.2875 40.9342 34.2968 42.6825C34.0093 42.7567 33.7101 42.7733 33.4163 42.7313C33.1224 42.6893 32.8398 42.5896 32.5846 42.4379C32.3295 42.2863 32.1069 42.0856 31.9296 41.8475C31.7524 41.6094 31.624 41.3386 31.5519 41.0507C31.4797 40.7627 31.4653 40.4634 31.5094 40.1698C31.5534 39.8763 31.6551 39.5944 31.8086 39.3403C31.9621 39.0863 32.1644 38.8651 32.4037 38.6896C32.6431 38.514 32.9148 38.3876 33.2032 38.3175C38.214 37.0643 40.5 34.2068 40.5 29.25V27H33.75C32.6147 27.0004 31.5212 26.5716 30.6888 25.7996C29.8563 25.0277 29.3464 23.9696 29.2613 22.8375L29.25 22.5V15.75C29.25 14.5565 29.7241 13.4119 30.568 12.568C31.4119 11.7241 32.5565 11.25 33.75 11.25L40.5 11.25Z" fill="#D6451B"/>
</g>
<defs>
<clipPath id="clip0_417_1334">
<rect width="54" height="54" fill="white"/>
</clipPath>
</defs>
</svg>
