<svg width="54" height="54" viewBox="0 0 54 54" fill="none" xmlns="http://www.w3.org/2000/svg">
<path d="M33.75 42.75C32.5565 42.75 31.4119 42.2759 30.568 41.432C29.7241 40.5881 29.25 39.4435 29.25 38.25L29.25 24.75C29.25 17.7075 32.9625 13.0658 39.9532 11.3175C40.2407 11.2433 40.5399 11.2267 40.8337 11.2687C41.1276 11.3107 41.4102 11.4104 41.6654 11.5621C41.9205 11.7137 42.1431 11.9144 42.3204 12.1525C42.4976 12.3906 42.626 12.6614 42.6981 12.9493C42.7703 13.2373 42.7847 13.5366 42.7406 13.8302C42.6966 14.1237 42.5949 14.4056 42.4414 14.6597C42.2879 14.9137 42.0856 15.1349 41.8463 15.3104C41.6069 15.486 41.3352 15.6124 41.0467 15.6825C36.036 16.9358 33.75 19.7933 33.75 24.75L33.75 27L40.5 27C41.6353 26.9996 42.7288 27.4284 43.5612 28.2004C44.3937 28.9723 44.9036 30.0304 44.9887 31.1625L45 31.5L45 38.25C45 39.4435 44.5259 40.5881 43.682 41.432C42.8381 42.2759 41.6935 42.75 40.5 42.75L33.75 42.75Z" fill="#D6451B"/>
<path d="M13.5 42.75C12.3065 42.75 11.1619 42.2759 10.318 41.432C9.47411 40.5881 9 39.4435 9 38.25L9 24.75C9 17.7075 12.7125 13.0658 19.7032 11.3175C19.9907 11.2433 20.2899 11.2267 20.5837 11.2687C20.8776 11.3107 21.1602 11.4104 21.4154 11.5621C21.6705 11.7137 21.8931 11.9144 22.0704 12.1525C22.2476 12.3906 22.376 12.6614 22.4481 12.9493C22.5203 13.2373 22.5347 13.5366 22.4906 13.8302C22.4466 14.1237 22.3449 14.4056 22.1914 14.6597C22.0379 14.9137 21.8356 15.1349 21.5963 15.3104C21.3569 15.486 21.0852 15.6124 20.7967 15.6825C15.786 16.9358 13.5 19.7933 13.5 24.75L13.5 27L20.25 27C21.3853 26.9996 22.4788 27.4284 23.3112 28.2004C24.1437 28.9723 24.6536 30.0304 24.7387 31.1625L24.75 31.5L24.75 38.25C24.75 39.4435 24.2759 40.5881 23.432 41.432C22.5881 42.2759 21.4435 42.75 20.25 42.75L13.5 42.75Z" fill="#D6451B"/>
</svg>
