<svg width="138" height="143" viewBox="0 0 138 143" fill="none" xmlns="http://www.w3.org/2000/svg">
<circle cx="69" cy="69" r="68.5" stroke="#FABE9E"/>
<g filter="url(#filter0_d_417_1343)">
<circle cx="69" cy="69" r="46" fill="white"/>
</g>
<path d="M92 56.136C92 49.9868 86.9842 45 80.7937 45C75.5671 45 71.1785 48.5548 69.9385 53.3634C68.8147 57.0481 65.3731 59.7292 61.2994 59.7292C59.3861 59.7292 57.6156 59.1348 56.1576 58.1239C55.0799 57.2022 53.68 56.6462 52.1493 56.6462C48.7538 56.6462 46 59.3827 46 62.7569C46 65.373 47.6542 67.6041 49.9793 68.4753C49.9696 68.4898 49.9575 68.5066 49.9478 68.5211C50.0882 68.5451 50.2263 68.574 50.3643 68.6053C50.5726 68.6679 50.7882 68.7208 51.0062 68.7593C56.0801 70.148 59.8099 74.7665 59.8099 80.2515C59.8099 81.1853 59.7009 82.0951 59.4975 82.9663C59.5048 82.9663 59.5096 82.9639 59.5169 82.9639C59.3522 83.6017 59.265 84.2684 59.265 84.9567C59.265 89.3995 62.8882 93 67.3591 93C71.83 93 75.4533 89.3995 75.4533 84.9567C75.4533 83.3586 74.9422 81.9049 74.1793 80.6245C73.2517 79.0698 73.1863 77.9314 73.2251 76.5259C73.3631 71.5343 77.1729 67.4549 82.1378 67.2094C82.133 67.2022 82.1282 67.1949 82.1209 67.1877C87.6841 66.5355 92 61.8375 92 56.1336V56.136ZM68.0567 76.6414C67.5384 76.8243 66.7561 76.9422 65.7994 76.9952C65.7195 76.9952 65.642 77 65.562 77C60.8683 77 57.0634 73.219 57.0634 68.5548C57.0634 67.5006 57.2596 66.4922 57.6156 65.5632C57.7222 65.3586 57.8191 65.1468 57.9014 64.9278C59.2723 62.0903 62.1859 60.1312 65.5645 60.1312C67.6086 60.1312 69.4856 60.8484 70.9533 62.0445C70.9533 62.0421 70.9533 62.0397 70.9557 62.0373C71.2609 62.2828 71.6896 62.6679 72.1231 63.1877C72.1376 63.2046 72.1522 63.2238 72.1667 63.2407C72.3944 63.5174 72.6196 63.8303 72.8279 64.1793H72.823C73.6078 65.4573 74.0607 66.9615 74.0607 68.5692C74.0607 72.3694 71.5346 75.5824 68.0591 76.6438L68.0567 76.6414Z" fill="url(#paint0_linear_417_1343)"/>
<defs>
<filter id="filter0_d_417_1343" x="6.8" y="17.8" width="124.4" height="124.4" filterUnits="userSpaceOnUse" color-interpolation-filters="sRGB">
<feFlood flood-opacity="0" result="BackgroundImageFix"/>
<feColorMatrix in="SourceAlpha" type="matrix" values="0 0 0 0 0 0 0 0 0 0 0 0 0 0 0 0 0 0 127 0" result="hardAlpha"/>
<feMorphology radius="5" operator="erode" in="SourceAlpha" result="effect1_dropShadow_417_1343"/>
<feOffset dy="11"/>
<feGaussianBlur stdDeviation="10.6"/>
<feComposite in2="hardAlpha" operator="out"/>
<feColorMatrix type="matrix" values="0 0 0 0 0.945098 0 0 0 0 0.352941 0 0 0 0 0.160784 0 0 0 0.2 0"/>
<feBlend mode="normal" in2="BackgroundImageFix" result="effect1_dropShadow_417_1343"/>
<feBlend mode="normal" in="SourceGraphic" in2="effect1_dropShadow_417_1343" result="shape"/>
</filter>
<linearGradient id="paint0_linear_417_1343" x1="56.9133" y1="77.2816" x2="81.4199" y2="58.073" gradientUnits="userSpaceOnUse">
<stop stop-color="#EF4136"/>
<stop offset="1" stop-color="#F15A29"/>
</linearGradient>
</defs>
</svg>
