<svg width="24" height="24" viewBox="0 0 24 24" fill="none" xmlns="http://www.w3.org/2000/svg">
<path d="M12 8.00016V16.0002M7.99997 12.0002H16M2.69997 10.3002C2.47592 10.524 2.29818 10.7898 2.17691 11.0823C2.05564 11.3749 1.99323 11.6885 1.99323 12.0052C1.99323 12.3219 2.05564 12.6354 2.17691 12.928C2.29818 13.2206 2.47592 13.4863 2.69997 13.7102L10.29 21.3002C10.5138 21.5242 10.7796 21.702 11.0721 21.8232C11.3647 21.9445 11.6783 22.0069 11.995 22.0069C12.3117 22.0069 12.6253 21.9445 12.9178 21.8232C13.2104 21.702 13.4761 21.5242 13.7 21.3002L21.29 13.7102C21.514 13.4863 21.6918 13.2206 21.813 12.928C21.9343 12.6354 21.9967 12.3219 21.9967 12.0052C21.9967 11.6885 21.9343 11.3749 21.813 11.0823C21.6918 10.7898 21.514 10.524 21.29 10.3002L13.7 2.71016C13.4761 2.48611 13.2104 2.30837 12.9178 2.1871C12.6253 2.06584 12.3117 2.00342 11.995 2.00342C11.6783 2.00342 11.3647 2.06584 11.0721 2.1871C10.7796 2.30837 10.5138 2.48611 10.29 2.71016L2.69997 10.3002Z" stroke="currentColor" stroke-width="2" stroke-linecap="round" stroke-linejoin="round"/>
</svg>
