<svg width="17" height="17" viewBox="0 0 17 17" fill="none" xmlns="http://www.w3.org/2000/svg">
<path d="M12.3808 2.97705C11.8395 2.97705 11.4336 3.38298 11.4336 3.92422C11.4336 4.46546 11.8395 4.87138 12.3808 4.87138C12.922 4.87138 13.3279 4.46546 13.3279 3.92422C13.3279 3.38298 12.922 2.97705 12.3808 2.97705Z" fill="#F37C4A"/>
<path d="M8.11858 4.19482C5.88598 4.19482 4.12695 6.0215 4.12695 8.18646C4.12695 10.3514 5.95363 12.1781 8.11858 12.1781C10.2835 12.1781 12.1102 10.3514 12.1102 8.18646C12.1102 6.0215 10.3512 4.19482 8.11858 4.19482ZM8.11858 10.7573C6.69783 10.7573 5.5477 9.60721 5.5477 8.18646C5.5477 6.76571 6.69783 5.61557 8.11858 5.61557C9.53933 5.61557 10.6895 6.76571 10.6895 8.18646C10.6895 9.60721 9.53933 10.7573 8.11858 10.7573Z" fill="#F37C4A"/>
<path d="M11.366 0H4.9388C2.16495 0 0 2.16495 0 4.87114V11.2983C0 14.0045 2.16495 16.1695 4.87114 16.1695H11.2983C14.0045 16.1695 16.1695 14.0045 16.1695 11.2983V4.87114C16.2371 2.16495 14.0722 0 11.366 0ZM14.6811 11.366C14.6811 13.1927 13.1927 14.7487 11.2983 14.7487H4.87114C3.04446 14.7487 1.4884 13.2603 1.4884 11.366V4.9388C1.4884 3.11212 2.97681 1.55606 4.87114 1.55606H11.2983C13.125 1.55606 14.6811 3.04446 14.6811 4.9388V11.366Z" fill="#F37C4A"/>
</svg>
