<svg width="190" height="60" viewBox="0 0 190 60" fill="none" xmlns="http://www.w3.org/2000/svg">
<g clip-path="url(#clip0_417_1457)">
<path d="M57.2069 13.9193C57.2069 6.23314 50.9691 0 43.2704 0C36.7705 0 31.3128 4.44322 29.7706 10.4537C28.373 15.0594 24.093 18.4106 19.0268 18.4106C16.6473 18.4106 14.4456 17.6676 12.6323 16.4041C11.292 15.2519 9.55105 14.557 7.64747 14.557C3.42464 14.557 0 17.9774 0 22.195C0 25.465 2.0572 28.2537 4.94872 29.3427C4.93667 29.3607 4.92161 29.3818 4.90956 29.3999C5.08426 29.4299 5.25594 29.466 5.42762 29.5051C5.68666 29.5834 5.95472 29.6495 6.2258 29.6977C12.5359 31.4334 17.1744 37.2063 17.1744 44.0622C17.1744 45.2294 17.0389 46.3665 16.7859 47.4555C16.7949 47.4555 16.8009 47.4525 16.81 47.4525C16.6052 48.2497 16.4967 49.083 16.4967 49.9433C16.4967 55.4966 21.0027 59.997 26.5628 59.997C32.123 59.997 36.6289 55.4966 36.6289 49.9433C36.6289 47.9459 35.9934 46.1289 35.0446 44.5285C33.891 42.5851 33.8097 41.1622 33.8579 39.4054C34.0296 33.1662 38.7675 28.0672 44.9421 27.7603C44.936 27.7513 44.93 27.7423 44.921 27.7333C51.8395 26.918 57.2069 21.0459 57.2069 13.9163V13.9193ZM27.4303 39.5498C26.7857 39.7784 25.8128 39.9258 24.6231 39.992C24.5237 39.992 24.4273 39.998 24.3279 39.998C18.4907 39.998 13.7588 35.272 13.7588 29.442C13.7588 28.1243 14.0028 26.8639 14.4456 25.7027C14.5781 25.447 14.6986 25.1823 14.801 24.9085C16.5058 21.3617 20.1292 18.913 24.3309 18.913C26.8731 18.913 29.2074 19.8095 31.0326 21.3046C31.0326 21.3016 31.0326 21.2986 31.0357 21.2956C31.4152 21.6024 31.9483 22.0837 32.4874 22.7335C32.5055 22.7546 32.5236 22.7786 32.5417 22.7997C32.8248 23.1457 33.1049 23.5367 33.3639 23.9729H33.3579C34.3338 25.5703 34.897 27.4505 34.897 29.46C34.897 34.2101 31.7555 38.2261 27.4333 39.5528L27.4303 39.5498Z" fill="url(#paint0_linear_417_1457)"/>
<path d="M57.2069 13.9193C57.2069 6.23314 50.9691 0 43.2704 0C36.7705 0 31.3128 4.44322 29.7706 10.4537C28.373 15.0594 24.093 18.4106 19.0268 18.4106C16.6473 18.4106 14.4456 17.6676 12.6323 16.4041C11.292 15.2519 9.55105 14.557 7.64747 14.557C3.42464 14.557 0 17.9774 0 22.195C0 25.465 2.0572 28.2537 4.94872 29.3427C4.93667 29.3607 4.92161 29.3818 4.90956 29.3999C5.08426 29.4299 5.25594 29.466 5.42762 29.5051C5.68666 29.5834 5.95472 29.6495 6.2258 29.6977C12.5359 31.4334 17.1744 37.2063 17.1744 44.0622C17.1744 45.2294 17.0389 46.3665 16.7859 47.4555C16.7949 47.4555 16.8009 47.4525 16.81 47.4525C16.6052 48.2497 16.4967 49.083 16.4967 49.9433C16.4967 55.4966 21.0027 59.997 26.5628 59.997C32.123 59.997 36.6289 55.4966 36.6289 49.9433C36.6289 47.9459 35.9934 46.1289 35.0446 44.5285C33.891 42.5851 33.8097 41.1622 33.8579 39.4054C34.0296 33.1662 38.7675 28.0672 44.9421 27.7603C44.936 27.7513 44.93 27.7423 44.921 27.7333C51.8395 26.918 57.2069 21.0459 57.2069 13.9163V13.9193ZM27.4303 39.5498C26.7857 39.7784 25.8128 39.9258 24.6231 39.992C24.5237 39.992 24.4273 39.998 24.3279 39.998C18.4907 39.998 13.7588 35.272 13.7588 29.442C13.7588 28.1243 14.0028 26.8639 14.4456 25.7027C14.5781 25.447 14.6986 25.1823 14.801 24.9085C16.5058 21.3617 20.1292 18.913 24.3309 18.913C26.8731 18.913 29.2074 19.8095 31.0326 21.3046C31.0326 21.3016 31.0326 21.2986 31.0357 21.2956C31.4152 21.6024 31.9483 22.0837 32.4874 22.7335C32.5055 22.7546 32.5236 22.7786 32.5417 22.7997C32.8248 23.1457 33.1049 23.5367 33.3639 23.9729H33.3579C34.3338 25.5703 34.897 27.4505 34.897 29.46C34.897 34.2101 31.7555 38.2261 27.4333 39.5528L27.4303 39.5498Z" fill="url(#paint1_linear_417_1457)"/>
<path d="M57.2069 13.9193C57.2069 6.23314 50.9691 0 43.2704 0C36.7705 0 31.3128 4.44322 29.7706 10.4537C28.373 15.0594 24.093 18.4106 19.0268 18.4106C16.6473 18.4106 14.4456 17.6676 12.6323 16.4041C11.292 15.2519 9.55105 14.557 7.64747 14.557C3.42464 14.557 0 17.9774 0 22.195C0 25.465 2.0572 28.2537 4.94872 29.3427C4.93667 29.3607 4.92161 29.3818 4.90956 29.3999C5.08426 29.4299 5.25594 29.466 5.42762 29.5051C5.68666 29.5834 5.95472 29.6495 6.2258 29.6977C12.5359 31.4334 17.1744 37.2063 17.1744 44.0622C17.1744 45.2294 17.0389 46.3665 16.7859 47.4555C16.7949 47.4555 16.8009 47.4525 16.81 47.4525C16.6052 48.2497 16.4967 49.083 16.4967 49.9433C16.4967 55.4966 21.0027 59.997 26.5628 59.997C32.123 59.997 36.6289 55.4966 36.6289 49.9433C36.6289 47.9459 35.9934 46.1289 35.0446 44.5285C33.891 42.5851 33.8097 41.1622 33.8579 39.4054C34.0296 33.1662 38.7675 28.0672 44.9421 27.7603C44.936 27.7513 44.93 27.7423 44.921 27.7333C51.8395 26.918 57.2069 21.0459 57.2069 13.9163V13.9193ZM27.4303 39.5498C26.7857 39.7784 25.8128 39.9258 24.6231 39.992C24.5237 39.992 24.4273 39.998 24.3279 39.998C18.4907 39.998 13.7588 35.272 13.7588 29.442C13.7588 28.1243 14.0028 26.8639 14.4456 25.7027C14.5781 25.447 14.6986 25.1823 14.801 24.9085C16.5058 21.3617 20.1292 18.913 24.3309 18.913C26.8731 18.913 29.2074 19.8095 31.0326 21.3046C31.0326 21.3016 31.0326 21.2986 31.0357 21.2956C31.4152 21.6024 31.9483 22.0837 32.4874 22.7335C32.5055 22.7546 32.5236 22.7786 32.5417 22.7997C32.8248 23.1457 33.1049 23.5367 33.3639 23.9729H33.3579C34.3338 25.5703 34.897 27.4505 34.897 29.46C34.897 34.2101 31.7555 38.2261 27.4333 39.5528L27.4303 39.5498Z" fill="url(#paint2_linear_417_1457)"/>
<path d="M68.1796 41.7038V17.77H71.7097V23.4105L71.6193 28.5065L71.7278 28.7592V41.7008H68.1796V41.7038ZM79.9084 41.7038V30.7868C79.9084 29.9325 79.7909 29.1894 79.556 28.5637C79.321 27.938 78.9355 27.4476 78.3963 27.0987C77.8602 26.7497 77.1253 26.5752 76.1976 26.5752C75.3422 26.5752 74.6012 26.7317 73.9807 27.0445C73.3603 27.3574 72.8543 27.7785 72.4687 28.311C72.0832 28.8405 71.8061 29.4451 71.6374 30.119L70.9326 27.6612H71.8181C72.0229 26.9152 72.3603 26.2353 72.8332 25.6276C73.303 25.02 73.9295 24.5326 74.7157 24.1716C75.4988 23.8106 76.4596 23.6301 77.5921 23.6301C78.9807 23.6301 80.1011 23.8919 80.9595 24.4153C81.815 24.9387 82.4475 25.7028 82.8511 26.7016C83.2547 27.7033 83.4565 28.9307 83.4565 30.3897V41.7068H79.9084V41.7038Z" fill="white"/>
<path d="M93.5893 42.1006C91.8394 42.1006 90.499 41.6704 89.5713 40.807C88.6406 39.9467 88.1768 38.7193 88.1768 37.1279V36.5864C88.1768 34.8988 88.6978 33.6503 89.743 32.8351C90.7852 32.0229 92.4297 31.4573 94.6736 31.1445L99.9958 30.3864L100.195 32.9524L95.0923 33.6744C93.8724 33.8429 93.005 34.1347 92.4869 34.5498C91.9689 34.965 91.7098 35.5756 91.7098 36.3849V36.6376C91.7098 37.4438 91.9598 38.0665 92.4598 38.4997C92.9598 38.9329 93.7249 39.1495 94.7489 39.1495C95.6887 39.1495 96.4989 38.993 97.1736 38.6802C97.8483 38.3673 98.3965 37.9492 98.8212 37.4227C99.2428 36.8993 99.532 36.3187 99.6886 35.6779L100.177 38.0454H99.526C99.3332 38.7674 99.0139 39.4383 98.5651 40.0519C98.1194 40.6656 97.4929 41.162 96.6917 41.535C95.8905 41.9081 94.8544 42.0946 93.5863 42.0946L93.5893 42.1006ZM99.5802 41.7035L99.7248 37.51L99.5983 36.9685V31.4002L99.6163 30.5157C99.6163 29.153 99.27 28.1542 98.5742 27.5135C97.8814 26.8757 96.767 26.5568 95.2339 26.5568C93.9899 26.5568 92.8393 26.7313 91.7761 27.0803C90.7129 27.4292 89.755 27.8323 88.8996 28.2926L89.2249 25.3295C89.7069 25.0527 90.2761 24.782 90.9267 24.5172C91.5773 24.2525 92.3152 24.0359 93.1345 23.8674C93.9538 23.699 94.8544 23.6147 95.8303 23.6147C97.1706 23.6147 98.3031 23.7742 99.2338 24.0931C100.162 24.4119 100.911 24.8722 101.478 25.4769C102.044 26.0785 102.457 26.8035 102.719 27.6458C102.978 28.4881 103.107 29.4297 103.107 30.4646V41.7095H99.5772L99.5802 41.7035Z" fill="white"/>
<path d="M108.758 41.7038V17.77H112.288V23.4105L112.198 28.4915L112.216 29.1052V36.4454L112.161 37.5675L112.306 41.7068H108.758V41.7038ZM117.969 42.1009C116.917 42.1009 116.014 41.9355 115.255 41.6046C114.496 41.2737 113.875 40.8044 113.399 40.1937C112.923 39.586 112.577 38.8761 112.357 38.0698H111.179L112.213 34.7246C112.261 35.7114 112.484 36.5356 112.881 37.1914C113.279 37.8472 113.821 38.3406 114.511 38.6655C115.2 38.9904 115.984 39.1528 116.863 39.1528C118.215 39.1528 119.246 38.7587 119.959 37.9676C120.67 37.1794 121.026 36.0002 121.026 34.4328V31.1237C121.026 29.6046 120.667 28.4554 119.947 27.6702C119.231 26.8881 118.188 26.494 116.824 26.494C115.993 26.494 115.255 26.6504 114.616 26.9633C113.978 27.2762 113.447 27.7003 113.032 28.2388C112.616 28.7743 112.324 29.388 112.155 30.0739L111.378 27.6522H112.393C112.598 26.9061 112.92 26.2263 113.36 25.6186C113.8 25.0109 114.405 24.5236 115.179 24.1626C115.95 23.8016 116.929 23.6211 118.11 23.6211C120.221 23.6211 121.83 24.2829 122.932 25.6096C124.038 26.9362 124.589 28.8705 124.589 31.4125V34.2132C124.589 36.7793 124.029 38.7347 122.905 40.0794C121.782 41.4241 120.137 42.0949 117.965 42.0949L117.969 42.1009Z" fill="white"/>
<path d="M131.688 21.4217C130.989 21.4217 130.465 21.2442 130.121 20.8892C129.778 20.5342 129.606 20.0439 129.606 19.4151V19.3429C129.606 18.7172 129.778 18.2269 130.121 17.8689C130.465 17.5139 130.986 17.3364 131.688 17.3364C132.389 17.3364 132.911 17.5139 133.254 17.8689C133.597 18.2239 133.769 18.7142 133.769 19.3429V19.4151C133.769 20.0529 133.597 20.5493 133.254 20.8982C132.911 21.2472 132.386 21.4217 131.688 21.4217ZM129.914 41.7034V24.0238H133.462V41.7034H129.914Z" fill="white"/>
<path d="M139.562 41.7038V17.77H143.11V41.7038H139.562Z" fill="white"/>
<path d="M150.979 21.4217C150.281 21.4217 149.757 21.2442 149.413 20.8892C149.07 20.5342 148.898 20.0439 148.898 19.4151V19.3429C148.898 18.7172 149.07 18.2269 149.413 17.8689C149.757 17.5139 150.278 17.3364 150.979 17.3364C151.681 17.3364 152.202 17.5139 152.546 17.8689C152.889 18.2239 153.061 18.7142 153.061 19.3429V19.4151C153.061 20.0529 152.889 20.5493 152.546 20.8982C152.202 21.2472 151.678 21.4217 150.979 21.4217ZM149.205 41.7034V24.0238H152.754V41.7034H149.205Z" fill="white"/>
<path d="M156.718 27.0624V24.2437H169.856L169.549 27.0624H156.718ZM165.332 42.0647C163.919 42.0647 162.787 41.8511 161.929 41.4239C161.073 40.9967 160.45 40.35 160.064 39.4896C159.679 38.6292 159.486 37.5523 159.486 36.2617V25.453H162.998V35.8466C162.998 36.9326 163.245 37.7267 163.739 38.2321C164.233 38.7375 165.067 38.9902 166.236 38.9902C166.934 38.9902 167.606 38.918 168.245 38.7736C168.883 38.6292 169.477 38.4247 170.019 38.1599L169.712 41.1622C169.133 41.451 168.462 41.6736 167.703 41.83C166.944 41.9865 166.151 42.0647 165.332 42.0647ZM159.522 24.5475L159.504 19.6861L163.052 19.271L162.907 24.5505H159.522V24.5475Z" fill="white"/>
<path d="M183.268 38.575L181.386 39.3873L186.361 24.021H190L181.946 47.9187H178.362L181.166 39.6219L182.759 40.9606H178.759L173.202 24.024H176.877L181.292 38.575H183.265H183.268Z" fill="white"/>
<path d="M93.1767 57.9399C91.9568 57.9399 91.0472 57.6029 90.4418 56.9261C89.8394 56.2492 89.5352 55.2896 89.5352 54.0411V52.543C89.5352 51.2946 89.8364 50.3349 90.4418 49.6611C91.0442 48.9872 91.9568 48.6533 93.1767 48.6533C93.5712 48.6533 93.9267 48.6924 94.2429 48.7676C94.5562 48.8428 94.8363 48.9421 95.0802 49.0594C95.3242 49.1768 95.526 49.3001 95.6827 49.4295L95.7911 50.4252C95.5049 50.1936 95.1616 49.995 94.764 49.8326C94.3634 49.6671 93.8845 49.5859 93.3242 49.5859C92.4357 49.5859 91.767 49.8416 91.3213 50.353C90.8755 50.8644 90.6526 51.6014 90.6526 52.5641V54.0171C90.6526 54.9737 90.8755 55.7077 91.3213 56.2221C91.767 56.7366 92.4357 56.9923 93.3333 56.9923C93.9056 56.9923 94.3965 56.908 94.8062 56.7426C95.2158 56.5741 95.5682 56.3756 95.8664 56.1439L95.7579 57.1577C95.5019 57.3532 95.1616 57.5307 94.7339 57.6962C94.3062 57.8616 93.7881 57.9429 93.1797 57.9429L93.1767 57.9399Z" fill="white"/>
<path d="M104.676 57.9662C103.444 57.9662 102.51 57.6262 101.869 56.9494C101.23 56.2695 100.908 55.2918 100.908 54.0133V52.5603C100.908 51.2878 101.227 50.3131 101.869 49.6393C102.507 48.9624 103.444 48.6255 104.676 48.6255C105.908 48.6255 106.842 48.9624 107.483 49.6393C108.122 50.3161 108.444 51.2878 108.444 52.5603V54.0133C108.444 55.2918 108.125 56.2695 107.483 56.9494C106.845 57.6292 105.908 57.9662 104.676 57.9662ZM104.676 57.0517C105.541 57.0517 106.2 56.796 106.655 56.2846C107.11 55.7731 107.336 55.0361 107.336 54.0735V52.4941C107.336 51.5375 107.11 50.8065 106.655 50.2951C106.2 49.7837 105.541 49.528 104.676 49.528C103.812 49.528 103.152 49.7837 102.7 50.2951C102.248 50.8065 102.022 51.5405 102.022 52.4941V54.0735C102.022 55.0361 102.248 55.7731 102.7 56.2846C103.152 56.796 103.809 57.0517 104.676 57.0517Z" fill="white"/>
<path d="M114.32 57.7465V48.845H115.426L115.372 51.0441L115.426 51.0982V57.7465H114.32ZM120.338 57.7465V52.1602C120.338 51.6307 120.266 51.1734 120.125 50.7914C119.98 50.4093 119.745 50.1115 119.417 49.907C119.088 49.6994 118.646 49.5971 118.091 49.5971C117.579 49.5971 117.134 49.6934 116.757 49.8889C116.381 50.0845 116.073 50.3522 115.845 50.6921C115.613 51.0321 115.453 51.4231 115.369 51.8593L115.14 51.0381H115.387C115.465 50.5989 115.631 50.2018 115.884 49.8468C116.137 49.4918 116.477 49.206 116.908 48.9894C117.338 48.7728 117.86 48.6646 118.477 48.6646C119.197 48.6646 119.772 48.7999 120.206 49.0677C120.64 49.3354 120.953 49.7205 121.152 50.2228C121.35 50.7252 121.45 51.3359 121.45 52.0549V57.7525H120.344L120.338 57.7465Z" fill="white"/>
<path d="M130.239 57.939C129.519 57.939 128.899 57.8578 128.374 57.6924C127.85 57.5269 127.414 57.3524 127.067 57.1629L126.959 56.113C127.399 56.3567 127.881 56.5643 128.405 56.7327C128.929 56.9042 129.525 56.9884 130.197 56.9884C130.935 56.9884 131.498 56.8621 131.886 56.6094C132.278 56.3567 132.471 55.9806 132.471 55.4813V55.3519C132.471 55.03 132.402 54.7623 132.26 54.5517C132.118 54.3411 131.868 54.1576 131.51 54.0042C131.152 53.8478 130.643 53.7034 129.983 53.571C129.233 53.4116 128.643 53.2281 128.209 53.0175C127.775 52.8069 127.468 52.5422 127.284 52.2173C127.1 51.8954 127.01 51.4953 127.01 51.02V50.9298C127.01 50.1927 127.272 49.6302 127.793 49.2361C128.314 48.842 129.094 48.6465 130.14 48.6465C130.835 48.6465 131.435 48.7277 131.941 48.8932C132.447 49.0586 132.859 49.2421 133.176 49.4497L133.284 50.4093C132.892 50.1717 132.45 49.9731 131.95 49.8107C131.45 49.6482 130.877 49.57 130.23 49.57C129.736 49.57 129.332 49.6242 129.019 49.7355C128.706 49.8438 128.474 50.0032 128.323 50.2108C128.173 50.4184 128.1 50.662 128.1 50.9418V51.023C128.1 51.3389 128.17 51.6036 128.311 51.8142C128.45 52.0248 128.697 52.2023 129.052 52.3497C129.405 52.4971 129.893 52.6294 130.516 52.7528C131.284 52.9122 131.889 53.0927 132.335 53.3003C132.781 53.5078 133.097 53.7726 133.287 54.0945C133.477 54.4164 133.57 54.8285 133.57 55.3279V55.4933C133.57 56.2965 133.287 56.9042 132.721 57.3193C132.155 57.7345 131.329 57.939 130.245 57.939H130.239Z" fill="white"/>
<path d="M140.13 48.8448V54.4312C140.13 54.9546 140.203 55.4089 140.344 55.7969C140.486 56.185 140.724 56.4828 141.052 56.6904C141.38 56.898 141.823 57.0062 142.377 57.0062C142.895 57.0062 143.341 56.907 143.718 56.7084C144.091 56.5099 144.398 56.2391 144.633 55.8962C144.868 55.5533 145.025 55.1682 145.103 54.741L145.332 55.5533H145.085C145.007 55.9864 144.841 56.3835 144.588 56.7445C144.335 57.1055 143.995 57.3973 143.564 57.6109C143.133 57.8275 142.612 57.9358 141.995 57.9358C141.281 57.9358 140.709 57.8004 140.272 57.5327C139.835 57.265 139.519 56.8799 139.317 56.3745C139.115 55.8691 139.016 55.2584 139.016 54.5395V48.8418H140.13V48.8448ZM146.145 48.8448V57.7463H145.04L145.094 55.5442L145.04 55.4901V48.8418H146.145V48.8448Z" fill="white"/>
<path d="M152.443 57.747V45.6387H153.549V57.747H152.443Z" fill="white"/>
<path d="M158.705 49.9039V49.0104H165.169L165.07 49.9039H158.708H158.705ZM160.241 49.1368L160.232 46.5798L161.356 46.4053L161.302 49.1368H160.241ZM162.982 57.9209C162.329 57.9209 161.802 57.8247 161.395 57.6291C160.988 57.4336 160.693 57.1358 160.509 56.7357C160.323 56.3326 160.229 55.8362 160.229 55.2376V49.4316H161.326V55.1112C161.326 55.7369 161.47 56.2032 161.759 56.504C162.049 56.8049 162.537 56.9553 163.226 56.9553C163.591 56.9553 163.946 56.9132 164.293 56.8289C164.639 56.7447 164.961 56.6214 165.265 56.4649L165.166 57.4336C164.88 57.587 164.546 57.7074 164.16 57.7946C163.778 57.8818 163.383 57.927 162.979 57.927L162.982 57.9209Z" fill="white"/>
</g>
<defs>
<linearGradient id="paint0_linear_417_1457" x1="13.5721" y1="40.35" x2="44.1664" y2="16.4907" gradientUnits="userSpaceOnUse">
<stop stop-color="#EF4136"/>
<stop offset="1" stop-color="#F15A29"/>
</linearGradient>
<linearGradient id="paint1_linear_417_1457" x1="13.5721" y1="40.35" x2="44.1664" y2="16.4907" gradientUnits="userSpaceOnUse">
<stop stop-color="#EF4136"/>
<stop offset="1" stop-color="#F15A29"/>
</linearGradient>
<linearGradient id="paint2_linear_417_1457" x1="13.5721" y1="40.35" x2="44.1664" y2="16.4907" gradientUnits="userSpaceOnUse">
<stop stop-color="#EF4136"/>
<stop offset="1" stop-color="#F15A29"/>
</linearGradient>
<clipPath id="clip0_417_1457">
<rect width="190" height="60" fill="white"/>
</clipPath>
</defs>
</svg>
