<svg width="134" height="42" viewBox="0 0 134 42" fill="none" xmlns="http://www.w3.org/2000/svg">
<g clip-path="url(#clip0_438_374)">
<path d="M40.3459 9.74349C40.3459 4.3632 35.9466 0 30.517 0C25.9329 0 22.0837 3.11025 20.9961 7.31762C20.0105 10.5416 16.9919 12.8874 13.4189 12.8874C11.7407 12.8874 10.1879 12.3673 8.90912 11.4829C7.96382 10.6764 6.73601 10.1899 5.39348 10.1899C2.41528 10.1899 0 12.5842 0 15.5365C0 17.8255 1.45086 19.7776 3.49015 20.5399C3.48165 20.5525 3.47103 20.5673 3.46253 20.5799C3.58574 20.601 3.70682 20.6262 3.8279 20.6536C4.01059 20.7083 4.19965 20.7547 4.39083 20.7884C8.84114 22.0034 12.1125 26.0444 12.1125 30.8435C12.1125 31.6606 12.0169 32.4566 11.8385 33.2188C11.8448 33.2188 11.8491 33.2167 11.8555 33.2167C11.711 33.7748 11.6345 34.3581 11.6345 34.9603C11.6345 38.8476 14.8124 41.9979 18.7338 41.9979C22.6552 41.9979 25.833 38.8476 25.833 34.9603C25.833 33.5621 25.3848 32.2902 24.7157 31.1699C23.9021 29.8096 23.8447 28.8135 23.8787 27.5838C23.9998 23.2163 27.3413 19.647 31.696 19.4322C31.6917 19.4259 31.6875 19.4196 31.6811 19.4133C36.5605 18.8426 40.3459 14.7321 40.3459 9.74139V9.74349ZM19.3456 27.6848C18.891 27.8449 18.2048 27.9481 17.3658 27.9944C17.2957 27.9944 17.2277 27.9986 17.1576 27.9986C13.0408 27.9986 9.70359 24.6904 9.70359 20.6094C9.70359 19.687 9.87565 18.8047 10.1879 17.9919C10.2814 17.8129 10.3664 17.6276 10.4386 17.4359C11.6409 14.9532 14.1964 13.2391 17.1597 13.2391C18.9526 13.2391 20.5989 13.8666 21.8862 14.9132C21.8862 14.9111 21.8862 14.909 21.8883 14.9069C22.156 15.1217 22.532 15.4586 22.9122 15.9135C22.9249 15.9282 22.9377 15.945 22.9504 15.9598C23.1501 16.202 23.3477 16.4757 23.5303 16.781H23.5261C24.2144 17.8992 24.6116 19.2153 24.6116 20.622C24.6116 23.9471 22.396 26.7583 19.3477 27.6869L19.3456 27.6848Z" fill="url(#paint0_linear_438_374)"/>
<path d="M40.3459 9.74349C40.3459 4.3632 35.9466 0 30.517 0C25.9329 0 22.0837 3.11025 20.9961 7.31762C20.0105 10.5416 16.9919 12.8874 13.4189 12.8874C11.7407 12.8874 10.1879 12.3673 8.90912 11.4829C7.96382 10.6764 6.73601 10.1899 5.39348 10.1899C2.41528 10.1899 0 12.5842 0 15.5365C0 17.8255 1.45086 19.7776 3.49015 20.5399C3.48165 20.5525 3.47103 20.5673 3.46253 20.5799C3.58574 20.601 3.70682 20.6262 3.8279 20.6536C4.01059 20.7083 4.19965 20.7547 4.39083 20.7884C8.84114 22.0034 12.1125 26.0444 12.1125 30.8435C12.1125 31.6606 12.0169 32.4566 11.8385 33.2188C11.8448 33.2188 11.8491 33.2167 11.8555 33.2167C11.711 33.7748 11.6345 34.3581 11.6345 34.9603C11.6345 38.8476 14.8124 41.9979 18.7338 41.9979C22.6552 41.9979 25.833 38.8476 25.833 34.9603C25.833 33.5621 25.3848 32.2902 24.7157 31.1699C23.9021 29.8096 23.8447 28.8135 23.8787 27.5838C23.9998 23.2163 27.3413 19.647 31.696 19.4322C31.6917 19.4259 31.6875 19.4196 31.6811 19.4133C36.5605 18.8426 40.3459 14.7321 40.3459 9.74139V9.74349ZM19.3456 27.6848C18.891 27.8449 18.2048 27.9481 17.3658 27.9944C17.2957 27.9944 17.2277 27.9986 17.1576 27.9986C13.0408 27.9986 9.70359 24.6904 9.70359 20.6094C9.70359 19.687 9.87565 18.8047 10.1879 17.9919C10.2814 17.8129 10.3664 17.6276 10.4386 17.4359C11.6409 14.9532 14.1964 13.2391 17.1597 13.2391C18.9526 13.2391 20.5989 13.8666 21.8862 14.9132C21.8862 14.9111 21.8862 14.909 21.8883 14.9069C22.156 15.1217 22.532 15.4586 22.9122 15.9135C22.9249 15.9282 22.9377 15.945 22.9504 15.9598C23.1501 16.202 23.3477 16.4757 23.5303 16.781H23.5261C24.2144 17.8992 24.6116 19.2153 24.6116 20.622C24.6116 23.9471 22.396 26.7583 19.3477 27.6869L19.3456 27.6848Z" fill="url(#paint1_linear_438_374)"/>
<path d="M40.3459 9.74349C40.3459 4.3632 35.9466 0 30.517 0C25.9329 0 22.0837 3.11025 20.9961 7.31762C20.0105 10.5416 16.9919 12.8874 13.4189 12.8874C11.7407 12.8874 10.1879 12.3673 8.90912 11.4829C7.96382 10.6764 6.73601 10.1899 5.39348 10.1899C2.41528 10.1899 0 12.5842 0 15.5365C0 17.8255 1.45086 19.7776 3.49015 20.5399C3.48165 20.5525 3.47103 20.5673 3.46253 20.5799C3.58574 20.601 3.70682 20.6262 3.8279 20.6536C4.01059 20.7083 4.19965 20.7547 4.39083 20.7884C8.84114 22.0034 12.1125 26.0444 12.1125 30.8435C12.1125 31.6606 12.0169 32.4566 11.8385 33.2188C11.8448 33.2188 11.8491 33.2167 11.8555 33.2167C11.711 33.7748 11.6345 34.3581 11.6345 34.9603C11.6345 38.8476 14.8124 41.9979 18.7338 41.9979C22.6552 41.9979 25.833 38.8476 25.833 34.9603C25.833 33.5621 25.3848 32.2902 24.7157 31.1699C23.9021 29.8096 23.8447 28.8135 23.8787 27.5838C23.9998 23.2163 27.3413 19.647 31.696 19.4322C31.6917 19.4259 31.6875 19.4196 31.6811 19.4133C36.5605 18.8426 40.3459 14.7321 40.3459 9.74139V9.74349ZM19.3456 27.6848C18.891 27.8449 18.2048 27.9481 17.3658 27.9944C17.2957 27.9944 17.2277 27.9986 17.1576 27.9986C13.0408 27.9986 9.70359 24.6904 9.70359 20.6094C9.70359 19.687 9.87565 18.8047 10.1879 17.9919C10.2814 17.8129 10.3664 17.6276 10.4386 17.4359C11.6409 14.9532 14.1964 13.2391 17.1597 13.2391C18.9526 13.2391 20.5989 13.8666 21.8862 14.9132C21.8862 14.9111 21.8862 14.909 21.8883 14.9069C22.156 15.1217 22.532 15.4586 22.9122 15.9135C22.9249 15.9282 22.9377 15.945 22.9504 15.9598C23.1501 16.202 23.3477 16.4757 23.5303 16.781H23.5261C24.2144 17.8992 24.6116 19.2153 24.6116 20.622C24.6116 23.9471 22.396 26.7583 19.3477 27.6869L19.3456 27.6848Z" fill="url(#paint2_linear_438_374)"/>
<path d="M48.0846 29.1928V12.4391H50.5742V16.3875L50.5105 19.9547L50.587 20.1316V29.1907H48.0846V29.1928ZM56.3564 29.1928V21.5509C56.3564 20.9528 56.2736 20.4327 56.1079 19.9947C55.9422 19.5567 55.6703 19.2134 55.2901 18.9692C54.9119 18.7249 54.3936 18.6028 53.7394 18.6028C53.1361 18.6028 52.6135 18.7123 52.1759 18.9313C51.7383 19.1503 51.3814 19.4451 51.1095 19.8178C50.8376 20.1884 50.6422 20.6117 50.5232 21.0834L50.0262 19.363H50.6507C50.7951 18.8407 51.0331 18.3648 51.3666 17.9394C51.6979 17.5141 52.1398 17.1729 52.6942 16.9202C53.2465 16.6675 53.9242 16.5412 54.7229 16.5412C55.7022 16.5412 56.4924 16.7244 57.0978 17.0908C57.7011 17.4572 58.1472 17.9921 58.4318 18.6912C58.7165 19.3924 58.8588 20.2516 58.8588 21.2729V29.1949H56.3564V29.1928Z" fill="white"/>
<path d="M66.0051 29.4704C64.7709 29.4704 63.8256 29.1693 63.1713 28.5649C62.5149 27.9627 62.1878 27.1035 62.1878 25.9895V25.6105C62.1878 24.4292 62.5553 23.5553 63.2924 22.9846C64.0274 22.416 65.1873 22.0201 66.7698 21.8011L70.5234 21.2705L70.6636 23.0667L67.0651 23.5721C66.2048 23.69 65.593 23.8943 65.2276 24.1849C64.8622 24.4755 64.6796 24.903 64.6796 25.4694V25.6463C64.6796 26.2107 64.8559 26.6466 65.2085 26.9498C65.5611 27.253 66.1007 27.4046 66.8229 27.4046C67.4857 27.4046 68.0571 27.2951 68.5329 27.0761C69.0088 26.8571 69.3954 26.5644 69.6949 26.1959C69.9923 25.8295 70.1962 25.4231 70.3067 24.9746L70.6508 26.6318H70.192C70.056 27.1372 69.8309 27.6068 69.5144 28.0364C69.2 28.466 68.7581 28.8134 68.1931 29.0745C67.628 29.3357 66.8973 29.4662 66.003 29.4662L66.0051 29.4704ZM70.2302 29.1925L70.3322 26.257L70.243 25.8779V21.9801L70.2557 21.361C70.2557 20.4071 70.0114 19.708 69.5207 19.2594C69.0321 18.813 68.2462 18.5898 67.1649 18.5898C66.2876 18.5898 65.4762 18.7119 64.7263 18.9562C63.9764 19.2005 63.3009 19.4827 62.6976 19.8048L62.927 17.7306C63.2669 17.5369 63.6684 17.3474 64.1272 17.1621C64.5861 16.9768 65.1065 16.8251 65.6843 16.7072C66.2621 16.5893 66.8973 16.5303 67.5855 16.5303C68.5308 16.5303 69.3295 16.6419 69.9859 16.8652C70.6402 17.0884 71.1691 17.4106 71.5685 17.8338C71.9679 18.255 72.2589 18.7625 72.4437 19.3521C72.6264 19.9417 72.7177 20.6008 72.7177 21.3252V29.1967H70.2281L70.2302 29.1925Z" fill="white"/>
<path d="M76.7029 29.1927V12.439H79.1925V16.3874L79.1288 19.9441L79.1415 20.3736V25.5118L79.1033 26.2972L79.2053 29.1948H76.7029V29.1927ZM83.1988 29.4707C82.4575 29.4707 81.8202 29.3548 81.2849 29.1232C80.7496 28.8916 80.312 28.5631 79.9764 28.1356C79.6407 27.7102 79.3964 27.2133 79.2414 26.6489H78.4108L79.1394 24.3073C79.1734 24.998 79.3306 25.5749 79.611 26.034C79.8914 26.4931 80.2738 26.8384 80.7602 27.0658C81.2467 27.2933 81.799 27.407 82.4192 27.407C83.373 27.407 84.0995 27.1311 84.603 26.5773C85.1043 26.0256 85.355 25.2001 85.355 24.103V21.7866C85.355 20.7232 85.1022 19.9188 84.5945 19.3692C84.0889 18.8217 83.3539 18.5458 82.3916 18.5458C81.8053 18.5458 81.2849 18.6553 80.8346 18.8743C80.3842 19.0933 80.0103 19.3902 79.7172 19.7672C79.424 20.142 79.218 20.5716 79.099 21.0517L78.551 19.3565H79.2669C79.4113 18.8343 79.6386 18.3584 79.9487 17.933C80.2589 17.5077 80.6859 17.1665 81.2318 16.9138C81.7756 16.6611 82.466 16.5348 83.2987 16.5348C84.7878 16.5348 85.9221 16.9981 86.6996 17.9267C87.4792 18.8554 87.868 20.2094 87.868 21.9888V23.9493C87.868 25.7455 87.4728 27.1143 86.6805 28.0556C85.8882 28.9969 84.7283 29.4665 83.1967 29.4665L83.1988 29.4707Z" fill="white"/>
<path d="M92.8744 14.9952C92.3816 14.9952 92.012 14.8709 91.7698 14.6224C91.5277 14.374 91.4066 14.0307 91.4066 13.5906V13.5401C91.4066 13.1021 91.5277 12.7588 91.7698 12.5082C92.012 12.2597 92.3795 12.1355 92.8744 12.1355C93.3694 12.1355 93.7369 12.2597 93.9791 12.5082C94.2212 12.7567 94.3423 13.1 94.3423 13.5401V13.5906C94.3423 14.037 94.2212 14.3845 93.9791 14.6288C93.7369 14.873 93.3673 14.9952 92.8744 14.9952ZM91.6233 29.1924V16.8167H94.1256V29.1924H91.6233Z" fill="white"/>
<path d="M98.4276 29.1927V12.439H100.93V29.1927H98.4276Z" fill="white"/>
<path d="M106.48 14.9952C105.987 14.9952 105.618 14.8709 105.376 14.6224C105.134 14.374 105.012 14.0307 105.012 13.5906V13.5401C105.012 13.1021 105.134 12.7588 105.376 12.5082C105.618 12.2597 105.985 12.1355 106.48 12.1355C106.975 12.1355 107.343 12.2597 107.585 12.5082C107.827 12.7567 107.948 13.1 107.948 13.5401V13.5906C107.948 14.037 107.827 14.3845 107.585 14.6288C107.343 14.873 106.973 14.9952 106.48 14.9952ZM105.229 29.1924V16.8167H107.731V29.1924H105.229Z" fill="white"/>
<path d="M110.527 18.9437V16.9706H119.793L119.577 18.9437H110.527ZM116.603 29.4453C115.606 29.4453 114.808 29.2958 114.202 28.9967C113.599 28.6977 113.159 28.245 112.887 27.6427C112.615 27.0405 112.479 26.2866 112.479 25.3832V17.8171H114.956V25.0926C114.956 25.8528 115.131 26.4087 115.479 26.7625C115.827 27.1163 116.416 27.2931 117.24 27.2931C117.733 27.2931 118.206 27.2426 118.657 27.1415C119.107 27.0404 119.526 26.8973 119.908 26.7119L119.691 28.8135C119.283 29.0157 118.81 29.1715 118.274 29.281C117.739 29.3905 117.18 29.4453 116.603 29.4453ZM112.505 17.1832L112.492 13.7803L114.995 13.4897L114.893 17.1853H112.505V17.1832Z" fill="white"/>
<path d="M129.252 27.0025L127.925 27.5711L131.434 16.8147H134L128.32 33.5431H125.792L127.77 27.7353L128.893 28.6724H126.072L122.153 16.8168H124.745L127.859 27.0025H129.25H129.252Z" fill="white"/>
<path d="M65.7141 40.5579C64.8537 40.5579 64.2122 40.322 63.7852 39.8482C63.3604 39.3744 63.1458 38.7027 63.1458 37.8288V36.7801C63.1458 35.9062 63.3583 35.2345 63.7852 34.7628C64.2101 34.2911 64.8537 34.0573 65.7141 34.0573C65.9923 34.0573 66.243 34.0847 66.4661 34.1373C66.687 34.19 66.8845 34.2595 67.0566 34.3416C67.2287 34.4237 67.371 34.5101 67.4814 34.6006L67.5579 35.2976C67.3561 35.1355 67.1139 34.9965 66.8335 34.8828C66.551 34.767 66.2133 34.7101 65.8182 34.7101C65.1915 34.7101 64.7199 34.8891 64.4055 35.2471C64.0911 35.6051 63.9339 36.121 63.9339 36.7948V37.8119C63.9339 38.4816 64.0911 38.9954 64.4055 39.3555C64.7199 39.7156 65.1915 39.8946 65.8245 39.8946C66.2281 39.8946 66.5744 39.8356 66.8633 39.7198C67.1522 39.6019 67.4007 39.4629 67.611 39.3007L67.5346 40.0104C67.354 40.1473 67.1139 40.2715 66.8123 40.3873C66.5107 40.5031 66.1453 40.56 65.7162 40.56L65.7141 40.5579Z" fill="white"/>
<path d="M73.8242 40.5763C72.9554 40.5763 72.2969 40.3384 71.8444 39.8646C71.394 39.3887 71.1667 38.7043 71.1667 37.8093V36.7922C71.1667 35.9015 71.3919 35.2192 71.8444 34.7475C72.2947 34.2737 72.9554 34.0378 73.8242 34.0378C74.693 34.0378 75.3515 34.2737 75.804 34.7475C76.2543 35.2213 76.4816 35.9015 76.4816 36.7922V37.8093C76.4816 38.7043 76.2565 39.3887 75.804 39.8646C75.3537 40.3405 74.693 40.5763 73.8242 40.5763ZM73.8242 39.9362C74.4339 39.9362 74.8991 39.7572 75.2198 39.3992C75.5406 39.0412 75.6999 38.5253 75.6999 37.8514V36.7459C75.6999 36.0762 75.5406 35.5645 75.2198 35.2066C74.8991 34.8486 74.4339 34.6696 73.8242 34.6696C73.2145 34.6696 72.7493 34.8486 72.4307 35.2066C72.112 35.5645 71.9527 36.0784 71.9527 36.7459V37.8514C71.9527 38.5253 72.112 39.0412 72.4307 39.3992C72.7493 39.7572 73.2124 39.9362 73.8242 39.9362Z" fill="white"/>
<path d="M80.626 40.4226V34.1915H81.4056L81.3674 35.7309L81.4056 35.7688V40.4226H80.626ZM84.8703 40.4226V36.5121C84.8703 36.1415 84.8193 35.8214 84.7194 35.554C84.6175 35.2865 84.4518 35.0781 84.2202 34.9349C83.9887 34.7896 83.6764 34.718 83.2856 34.718C82.9245 34.718 82.6101 34.7854 82.3445 34.9222C82.079 35.0591 81.8623 35.2465 81.7009 35.4845C81.5373 35.7224 81.4247 35.9962 81.3652 36.3015L81.2038 35.7267H81.378C81.4332 35.4192 81.5501 35.1412 81.7285 34.8928C81.9069 34.6443 82.147 34.4442 82.4507 34.2926C82.7545 34.141 83.122 34.0652 83.5575 34.0652C84.0652 34.0652 84.4709 34.1599 84.7768 34.3474C85.0827 34.5348 85.3036 34.8043 85.4438 35.156C85.584 35.5077 85.6541 35.9351 85.6541 36.4384V40.4268H84.8745L84.8703 40.4226Z" fill="white"/>
<path d="M91.8527 40.5574C91.345 40.5574 90.9074 40.5006 90.5378 40.3848C90.1681 40.2689 89.8601 40.1468 89.6158 40.0141L89.5394 39.2792C89.8495 39.4498 90.1894 39.5951 90.559 39.713C90.9286 39.833 91.3492 39.892 91.8229 39.892C92.3434 39.892 92.7406 39.8036 93.0146 39.6267C93.2908 39.4498 93.4267 39.1866 93.4267 38.837V38.7464C93.4267 38.5211 93.3779 38.3337 93.278 38.1863C93.1782 38.0389 93.0019 37.9105 92.7491 37.8031C92.4963 37.6936 92.1373 37.5925 91.6721 37.4998C91.1432 37.3882 90.7268 37.2598 90.4209 37.1124C90.115 36.965 89.8984 36.7796 89.7688 36.5522C89.6392 36.3269 89.5755 36.0468 89.5755 35.7141V35.6509C89.5755 35.135 89.7603 34.7412 90.1278 34.4654C90.4953 34.1895 91.0455 34.0526 91.7826 34.0526C92.2733 34.0526 92.696 34.1095 93.0529 34.2253C93.4098 34.3411 93.7008 34.4696 93.9238 34.6149L94.0003 35.2866C93.7241 35.1203 93.4119 34.9813 93.0592 34.8676C92.7066 34.7539 92.303 34.6991 91.8463 34.6991C91.4979 34.6991 91.2133 34.737 90.9924 34.8149C90.7714 34.8907 90.6079 35.0024 90.5017 35.1477C90.3954 35.293 90.3445 35.4635 90.3445 35.6594V35.7162C90.3445 35.9373 90.3933 36.1226 90.4932 36.27C90.5909 36.4174 90.7651 36.5417 91.0157 36.6449C91.2643 36.7481 91.6084 36.8407 92.0481 36.927C92.5898 37.0387 93.0168 37.165 93.3312 37.3103C93.6455 37.4556 93.8686 37.6409 94.0024 37.8662C94.1362 38.0916 94.2021 38.38 94.2021 38.7296V38.8454C94.2021 39.4077 94.0024 39.833 93.6031 40.1236C93.2037 40.4142 92.6217 40.5574 91.8569 40.5574H91.8527Z" fill="white"/>
<path d="M98.8287 34.1915V38.1019C98.8287 38.4683 98.8797 38.7863 98.9796 39.0579C99.0794 39.3296 99.2472 39.5381 99.4787 39.6834C99.7103 39.8287 100.023 39.9045 100.413 39.9045C100.779 39.9045 101.093 39.835 101.359 39.696C101.622 39.557 101.839 39.3675 102.004 39.1274C102.17 38.8874 102.281 38.6178 102.336 38.3188L102.497 38.8874H102.323C102.268 39.1906 102.151 39.4686 101.973 39.7213C101.794 39.974 101.554 40.1782 101.25 40.3277C100.947 40.4794 100.579 40.5552 100.144 40.5552C99.6402 40.5552 99.2366 40.4604 98.9286 40.273C98.6205 40.0856 98.3975 39.816 98.2552 39.4623C98.1129 39.1085 98.0428 38.681 98.0428 38.1777V34.1894H98.8287V34.1915ZM103.071 34.1915V40.4225H102.291L102.329 38.8811L102.291 38.8432V34.1894H103.071V34.1915Z" fill="white"/>
<path d="M107.513 40.423V31.9472H108.292V40.423H107.513Z" fill="white"/>
<path d="M111.929 34.9328V34.3074H116.488L116.418 34.9328H111.931H111.929ZM113.012 34.3959L113.006 32.6059L113.798 32.4838L113.76 34.3959H113.012ZM114.945 40.5448C114.484 40.5448 114.113 40.4774 113.826 40.3405C113.539 40.2036 113.331 39.9952 113.201 39.7151C113.07 39.4329 113.004 39.0854 113.004 38.6664V34.6022H113.777V38.578C113.777 39.016 113.879 39.3424 114.083 39.5529C114.287 39.7635 114.631 39.8688 115.117 39.8688C115.375 39.8688 115.625 39.8393 115.869 39.7804C116.114 39.7214 116.341 39.6351 116.556 39.5256L116.486 40.2036C116.284 40.311 116.048 40.3953 115.776 40.4563C115.506 40.5174 115.228 40.549 114.943 40.549L114.945 40.5448Z" fill="white"/>
</g>
<defs>
<linearGradient id="paint0_linear_438_374" x1="9.57188" y1="28.245" x2="31.0265" y2="11.3876" gradientUnits="userSpaceOnUse">
<stop stop-color="#EF4136"/>
<stop offset="1" stop-color="#F15A29"/>
</linearGradient>
<linearGradient id="paint1_linear_438_374" x1="9.57188" y1="28.245" x2="31.0265" y2="11.3876" gradientUnits="userSpaceOnUse">
<stop stop-color="#EF4136"/>
<stop offset="1" stop-color="#F15A29"/>
</linearGradient>
<linearGradient id="paint2_linear_438_374" x1="9.57188" y1="28.245" x2="31.0265" y2="11.3876" gradientUnits="userSpaceOnUse">
<stop stop-color="#EF4136"/>
<stop offset="1" stop-color="#F15A29"/>
</linearGradient>
<clipPath id="clip0_438_374">
<rect width="134" height="42" fill="white"/>
</clipPath>
</defs>
</svg>
