<svg width="116" height="18" viewBox="0 0 116 18" fill="none" xmlns="http://www.w3.org/2000/svg">
<path d="M33.5034 7.67649L32.799 6.5799L32.2124 5.6665L32.0947 5.4833L31.3901 4.38671L30.6858 3.29011L29.9814 2.19352L29.2771 1.09692L28.5731 0H14.301V17.5462H28.5731L29.2774 16.4496L29.9818 15.353L30.6861 14.2564L31.3904 13.1598L32.095 12.0632L32.2127 11.88L32.7994 10.9666L33.5037 9.87001L34.208 8.77341L33.5037 7.67682L33.5034 7.67649ZM27.0429 9.86968L26.3386 10.9663L26.2417 11.117L25.6342 12.0629L24.9296 13.1595L24.2253 14.2561L23.5209 15.3527L23.3038 15.6908C23.2967 15.7022 23.2899 15.7132 23.2824 15.7239L22.8169 16.4493H21.9176C21.2009 16.4493 20.5915 15.9913 20.3656 15.3527C20.3045 15.1812 20.2717 14.9967 20.2717 14.8044V2.74149C20.2717 2.54919 20.3045 2.3647 20.3656 2.19319C20.5915 1.55427 21.2006 1.0966 21.9176 1.0966H22.8169L23.2824 1.82192C23.2899 1.83296 23.297 1.84401 23.3038 1.85505L23.5209 2.19319L24.2253 3.28979L24.9296 4.38638L25.6342 5.48298L26.2417 6.42885L26.3386 6.57957L27.0429 7.67617L27.7472 8.77276L27.0429 9.86936V9.86968Z" fill="url(#paint0_linear_417_1529)"/>
<path d="M7.86913 6.5799L8.33099 5.86074L8.57345 5.4833L9.27778 4.38638L9.9821 3.28979L10.6861 2.19319L11.3904 1.0966L12.0948 0H5.63427L4.92995 1.0966L4.22595 2.19319L2.8173 4.38638L2.36032 5.09806L2.11297 5.4833L1.40897 6.5799L0.70465 7.67649L0 8.77309L0.70465 9.86968L1.40897 10.9663L2.11297 12.0629L2.36032 12.4478L2.8173 13.1595L4.22595 15.353L4.92995 16.4496L5.63427 17.5462H12.0948L11.3904 16.4496L10.6861 15.353L9.9821 14.2561L9.27778 13.1595L8.57345 12.0629L8.33099 11.6854L7.86913 10.9663L7.16513 9.86968L6.46048 8.77309L7.16513 7.67649L7.86913 6.5799Z" fill="url(#paint1_linear_417_1529)"/>
<path d="M38.8529 8.71C38.8529 6.23811 40.05 4.64812 42.2084 4.64812C43.5947 4.64812 44.4296 5.30945 44.7761 6.01789H44.8236V2.08203H46.5091V12.6303H44.9494V11.3391H44.8863C44.5083 12.2366 43.6418 12.7875 42.3027 12.7875C40.0656 12.7875 38.8529 11.1975 38.8529 8.71ZM42.681 11.3391C44.0672 11.3391 44.8236 10.7252 44.8236 9.41843V8.01716C44.8236 6.7104 44.0672 6.09649 42.681 6.09649C41.1843 6.09649 40.5544 6.78901 40.5544 8.71C40.5544 10.631 41.1687 11.3391 42.681 11.3391Z" fill="url(#paint2_linear_417_1529)"/>
<path d="M47.8011 8.71032C47.8011 6.28586 49.2504 4.64844 51.5818 4.64844C53.6928 4.64844 55.1736 5.90777 55.1736 8.04899C55.1736 8.45826 55.1265 8.88345 55.0791 9.1196H49.3921C49.4552 10.5521 49.9749 11.2764 51.6133 11.2764C52.9209 11.2764 53.425 10.8356 53.425 10.1272V10.0012H55.1106V10.1428C55.1106 11.7487 53.7084 12.7878 51.5977 12.7878C49.0141 12.7878 47.8011 11.1504 47.8011 8.71032ZM49.4081 7.98597H53.5511C53.6142 6.64771 52.8894 6.0809 51.5506 6.0809C50.0698 6.0809 49.5026 6.77342 49.4081 7.98597Z" fill="url(#paint3_linear_417_1529)"/>
<path d="M58.6081 12.6303L55.4733 4.80566H57.3636L59.6479 11.0084H59.758L62.0579 4.80566H63.9011L60.7503 12.6303H58.6078H58.6081Z" fill="url(#paint4_linear_417_1529)"/>
<path d="M64.0276 12.6304V11.2922L67.8398 7.41934L68.848 6.42766V6.30163H64.2639V4.80615H71.1953V6.25453L67.2726 10.1274L66.359 11.0089V11.135H71.4316V12.6304H64.0276Z" fill="url(#paint5_linear_417_1529)"/>
<path d="M73.1028 8.74151C73.1028 6.28554 74.2686 4.69521 76.3953 4.69521C77.892 4.69521 78.8528 5.48258 79.1836 6.33264V2.08203H80.318V12.6303H79.3097V11.1348H79.2467C78.9002 12.1109 77.9866 12.7878 76.5214 12.7878C74.3317 12.7878 73.1028 11.1978 73.1028 8.74183V8.74151ZM76.7102 11.8114C78.2541 11.8114 79.1833 11.0084 79.1833 9.41843V8.08017C79.1833 6.47426 78.2537 5.6713 76.7102 5.6713C75.1667 5.6713 74.2368 6.36414 74.2368 8.74151C74.2368 11.1189 75.1664 11.8114 76.7102 11.8114Z" fill="white"/>
<path d="M81.7042 8.7416C81.7042 6.38016 83.1064 4.69531 85.3276 4.69531C87.2023 4.69531 88.7462 5.82894 88.7462 8.12737C88.7462 8.48954 88.7146 8.8358 88.6675 9.05636H82.7758C82.8233 10.7724 83.5006 11.78 85.3594 11.78C86.9348 11.78 87.565 11.0715 87.565 10.127V10.0324H88.6834V10.1426C88.6834 11.6384 87.3287 12.7876 85.3438 12.7876C82.9494 12.7876 81.7049 11.1031 81.7049 8.7416H81.7042ZM82.7755 8.23781H87.6749C87.7379 6.39575 86.8243 5.6714 85.2961 5.6714C83.5634 5.6714 82.8701 6.6634 82.7755 8.23781Z" fill="white"/>
<path d="M90.1325 10.0799V10.0484H91.2353V10.2371C91.2353 11.3077 91.6763 11.8271 93.4409 11.8271C94.8902 11.8271 95.2682 11.4178 95.2682 10.6308C95.2682 9.84372 94.78 9.56015 93.5982 9.3396L92.3062 9.11937C91.0461 8.88323 90.1322 8.3005 90.1322 6.93105C90.1322 5.56161 91.2665 4.69531 93.1094 4.69531C94.9522 4.69531 96.1971 5.60838 96.1971 7.35592V7.43453H95.1102V7.3085C95.1102 6.37951 94.7478 5.67107 93.0778 5.67107C91.6601 5.67107 91.219 6.12777 91.219 6.91481C91.219 7.70185 91.613 7.96983 92.7785 8.19006L94.1017 8.44212C95.4564 8.69386 96.3544 9.29218 96.3544 10.5833C96.3544 11.9687 95.2201 12.7872 93.4243 12.7872C91.2977 12.7872 90.1318 11.8898 90.1318 10.0795L90.1325 10.0799Z" fill="white"/>
<path d="M97.8046 3.81365V2.08203H98.923V3.81365H97.8046ZM97.8046 12.6303V4.75855H98.923V12.6303H97.8046Z" fill="white"/>
<path d="M100.246 8.31641C100.246 6.11251 101.459 4.69531 103.634 4.69531C105.004 4.69531 106.044 5.37224 106.39 6.36424H106.453V4.85285H107.462V12.2994C107.462 14.4091 106.107 15.4638 104.059 15.4638C102.011 15.4638 100.672 14.4247 100.672 12.63H101.79C101.79 13.9053 102.436 14.4562 104.075 14.4562C105.713 14.4562 106.327 13.8579 106.327 12.2994V10.3157H106.312C105.949 11.2132 104.973 11.9372 103.618 11.9372C101.475 11.9372 100.247 10.5203 100.247 8.31609L100.246 8.31641ZM103.885 10.9614C105.288 10.9614 106.327 10.1585 106.327 8.55256V8.08027C106.327 6.47436 105.272 5.6714 103.822 5.6714C102.373 5.6714 101.38 6.26972 101.38 8.31641C101.38 10.3631 102.373 10.9614 103.885 10.9614Z" fill="white"/>
<path d="M109.226 12.6305V4.85334H110.25V6.45925H110.297C110.597 5.64038 111.479 4.6958 113.086 4.6958C115.086 4.6958 116 5.98696 116 7.8602V12.6305H114.882V8.11227C114.882 6.42775 114.33 5.6878 112.739 5.6878C111.148 5.6878 110.36 6.41183 110.36 8.14377V12.6305H109.226Z" fill="white"/>
<defs>
<linearGradient id="paint0_linear_417_1529" x1="0.55321" y1="21.864" x2="39.4159" y2="-2.52709" gradientUnits="userSpaceOnUse">
<stop stop-color="#7FEC98"/>
<stop offset="1" stop-color="#1BD79D"/>
</linearGradient>
<linearGradient id="paint1_linear_417_1529" x1="-2.99671" y1="16.2082" x2="35.8659" y2="-8.1832" gradientUnits="userSpaceOnUse">
<stop stop-color="#7FEC98"/>
<stop offset="1" stop-color="#1BD79D"/>
</linearGradient>
<linearGradient id="paint2_linear_417_1529" x1="37.0585" y1="10.146" x2="74.7911" y2="-2.09918" gradientUnits="userSpaceOnUse">
<stop stop-color="#7FEC98"/>
<stop offset="1" stop-color="#1BD79D"/>
</linearGradient>
<linearGradient id="paint3_linear_417_1529" x1="38.03" y1="13.1399" x2="75.7626" y2="0.894996" gradientUnits="userSpaceOnUse">
<stop stop-color="#7FEC98"/>
<stop offset="1" stop-color="#1BD79D"/>
</linearGradient>
<linearGradient id="paint4_linear_417_1529" x1="38.6429" y1="15.0281" x2="76.3752" y2="2.78287" gradientUnits="userSpaceOnUse">
<stop stop-color="#7FEC98"/>
<stop offset="1" stop-color="#1BD79D"/>
</linearGradient>
<linearGradient id="paint5_linear_417_1529" x1="39.5696" y1="17.8838" x2="77.3019" y2="5.63853" gradientUnits="userSpaceOnUse">
<stop stop-color="#7FEC98"/>
<stop offset="1" stop-color="#1BD79D"/>
</linearGradient>
</defs>
</svg>
