<svg width="24" height="24" viewBox="0 0 24 24" fill="none" xmlns="http://www.w3.org/2000/svg">
<path d="M12 17V21M14.305 7.52996L15.228 7.14795M15.228 4.85196L14.305 4.46896M16.852 3.22796L16.469 2.30396M16.852 8.77196L16.469 9.69495M19.148 3.22796L19.531 2.30396M19.53 9.69596L19.148 8.77196M20.772 4.85196L21.696 4.46896M20.772 7.14795L21.696 7.53096M22 13V15C22 15.5304 21.7893 16.0391 21.4142 16.4142C21.0391 16.7892 20.5304 17 20 17H4C3.46957 17 2.96086 16.7892 2.58579 16.4142C2.21071 16.0391 2 15.5304 2 15V4.99996C2 4.46952 2.21071 3.96081 2.58579 3.58574C2.96086 3.21067 3.46957 2.99996 4 2.99996H11M8 21H16M21 5.99996C21 7.65681 19.6569 8.99996 18 8.99996C16.3431 8.99996 15 7.65681 15 5.99996C15 4.3431 16.3431 2.99996 18 2.99996C19.6569 2.99996 21 4.3431 21 5.99996Z" stroke="#111111" stroke-width="2" stroke-linecap="round" stroke-linejoin="round"/>
</svg>
