<svg width="10" height="10" viewBox="0 0 10 10" fill="none" xmlns="http://www.w3.org/2000/svg">
<path d="M4.55341 0.275967C4.59498 0.193026 4.6588 0.123286 4.73775 0.0745492C4.81669 0.0258122 4.90763 0 5.00041 0C5.09318 0 5.18413 0.0258122 5.26307 0.0745492C5.34201 0.123286 5.40584 0.193026 5.44741 0.275967L6.87291 3.12647L9.72391 4.55247C9.80215 4.59157 9.86876 4.65051 9.9171 4.72341C9.96544 4.79631 9.99381 4.88061 9.99937 4.9679C10.0049 5.0552 9.98751 5.14242 9.94882 5.22087C9.91014 5.29932 9.85155 5.36624 9.77891 5.41497L9.72391 5.44647L6.87291 6.87197L5.44791 9.72297C5.40884 9.80132 5.34989 9.86804 5.27694 9.91646C5.20399 9.96488 5.11961 9.99329 5.03224 9.99886C4.94486 10.0044 4.85756 9.98696 4.77905 9.94819C4.70055 9.90943 4.6336 9.85073 4.58491 9.77797L4.55341 9.72297L3.12741 6.87197L0.276908 5.44697C0.198553 5.4079 0.13183 5.34895 0.0834127 5.276C0.0349952 5.20305 0.006581 5.11867 0.00101246 5.0313C-0.00455608 4.94392 0.0129162 4.85662 0.0516816 4.77811C0.0904471 4.69961 0.149147 4.63266 0.221908 4.58397L0.276908 4.55247L3.12741 3.12647L4.55341 0.275967Z" fill="#FABE9E"/>
</svg>
